<svg xmlns="http://www.w3.org/2000/svg" viewBox="0 0 32 32">
  <defs>
    <linearGradient id="g" x1="5" y1="10" x2="27" y2="22" gradientUnits="userSpaceOnUse">
      <stop stop-color="#f0b155"/>
      <stop offset="1" stop-color="#c77f18"/>
    </linearGradient>
  </defs>
  <rect width="32" height="32" rx="7" fill="#100d0b"/>
  <path d="M6.5 10H25.5A1.5 1.5 0 0 1 27 11.5V13.5A2.5 2.5 0 0 0 27 18.5V20.5A1.5 1.5 0 0 1 25.5 22H6.5A1.5 1.5 0 0 1 5 20.5V18.5A2.5 2.5 0 0 0 5 13.5V11.5A1.5 1.5 0 0 1 6.5 10Z" fill="url(#g)"/>
  <path d="M20 11.2V20.8" stroke="#100d0b" stroke-width="1.5" stroke-linecap="round" stroke-dasharray="1.6 2.2"/>
</svg>
